<svg width="24" height="24" viewBox="0 0 24 24" fill="none" xmlns="http://www.w3.org/2000/svg">
<g id="icons / trashbin">
<path id="icon" fill-rule="evenodd" clip-rule="evenodd" d="M9 2H15C16.1046 2 17 2.71634 17 3.6V5H20C21.1046 5 22 5.44772 22 6V7C22 7.55228 21.1046 8 20 8H20.0868L19.9965 9.08305L19 21C19 22.1046 18.1046 23 17 23H7C5.89543 23 5 22.1046 5.00345 21.083L3.9132 8H4C2.89543 8 2 7.55228 2 7V6C2 5.44772 2.89543 5 4 5H7V3.6C7 2.71634 7.89543 2 9 2ZM11 10L11.1545 19H12.8456L12.8461 18.9321L13 10H11ZM15.1545 19L15 10H17L16.8461 18.9321L16.8456 19H15.1545ZM6.99999 10L7.15448 19H8.84556L8.84615 18.9321L8.99999 10H6.99999ZM15 4V5H9V4H15Z" fill="black"/>
</g>
</svg>
